<mxfile host="app.diagrams.net" modified="2022-12-05T16:21:11.915Z" agent="5.0 (Windows NT 10.0; Win64; x64) AppleWebKit/537.36 (KHTML, like Gecko) Chrome/107.0.0.0 Safari/537.36 Edg/107.0.1418.56" version="20.6.0" etag="A61JnMd0MUIWrZ525Mq6" type="github">
  <diagram id="eDWfhT4UbHFhjne_GvuV" name="第 1 页">
    <mxGraphModel dx="1422" dy="762" grid="1" gridSize="10" guides="1" tooltips="1" connect="1" arrows="1" fold="1" page="1" pageScale="1" pageWidth="1169" pageHeight="1654" math="0" shadow="0">
      <root>
        <mxCell id="0" />
        <mxCell id="1" parent="0" />
        <mxCell id="hKcBIEpO0FBxgOj7Asnk-30" value="" style="rounded=1;whiteSpace=wrap;html=1;fontSize=18;fontColor=#00CC00;" vertex="1" parent="1">
          <mxGeometry x="240" y="660" width="670" height="130" as="geometry" />
        </mxCell>
        <mxCell id="hKcBIEpO0FBxgOj7Asnk-27" value="" style="rounded=1;whiteSpace=wrap;html=1;fontSize=18;" vertex="1" parent="1">
          <mxGeometry x="10" y="170" width="1140" height="390" as="geometry" />
        </mxCell>
        <mxCell id="hKcBIEpO0FBxgOj7Asnk-22" value="" style="rounded=1;whiteSpace=wrap;html=1;fontSize=18;" vertex="1" parent="1">
          <mxGeometry x="20" y="240" width="670" height="290" as="geometry" />
        </mxCell>
        <mxCell id="hKcBIEpO0FBxgOj7Asnk-6" style="edgeStyle=orthogonalEdgeStyle;rounded=0;orthogonalLoop=1;jettySize=auto;html=1;entryX=0.911;entryY=0.494;entryDx=0;entryDy=0;entryPerimeter=0;fontSize=15;fontColor=#000000;" edge="1" parent="1" source="hKcBIEpO0FBxgOj7Asnk-2" target="hKcBIEpO0FBxgOj7Asnk-4">
          <mxGeometry relative="1" as="geometry" />
        </mxCell>
        <mxCell id="hKcBIEpO0FBxgOj7Asnk-8" value="model::copyFrom" style="edgeLabel;html=1;align=center;verticalAlign=middle;resizable=0;points=[];fontSize=18;" vertex="1" connectable="0" parent="hKcBIEpO0FBxgOj7Asnk-6">
          <mxGeometry x="0.0598" y="-1" relative="1" as="geometry">
            <mxPoint y="-2" as="offset" />
          </mxGeometry>
        </mxCell>
        <mxCell id="hKcBIEpO0FBxgOj7Asnk-2" value="CMI Mo" style="shape=dataStorage;whiteSpace=wrap;html=1;fixedSize=1;flipH=1;fontSize=15;fillColor=#fad7ac;strokeColor=#b46504;" vertex="1" parent="1">
          <mxGeometry x="500" y="300" width="180" height="79" as="geometry" />
        </mxCell>
        <mxCell id="hKcBIEpO0FBxgOj7Asnk-5" style="edgeStyle=orthogonalEdgeStyle;rounded=0;orthogonalLoop=1;jettySize=auto;html=1;fontSize=15;" edge="1" parent="1" source="hKcBIEpO0FBxgOj7Asnk-3">
          <mxGeometry relative="1" as="geometry">
            <mxPoint x="520" y="340" as="targetPoint" />
          </mxGeometry>
        </mxCell>
        <mxCell id="hKcBIEpO0FBxgOj7Asnk-7" value="deserialized by generated cpp" style="edgeLabel;html=1;align=center;verticalAlign=middle;resizable=0;points=[];fontSize=18;" vertex="1" connectable="0" parent="hKcBIEpO0FBxgOj7Asnk-5">
          <mxGeometry x="-0.274" y="2" relative="1" as="geometry">
            <mxPoint x="34" y="2" as="offset" />
          </mxGeometry>
        </mxCell>
        <mxCell id="hKcBIEpO0FBxgOj7Asnk-3" value="CMI protobuf" style="shape=dataStorage;whiteSpace=wrap;html=1;fixedSize=1;flipH=1;fontSize=15;fillColor=#fad7ac;strokeColor=#b46504;" vertex="1" parent="1">
          <mxGeometry x="60" y="300" width="180" height="79" as="geometry" />
        </mxCell>
        <mxCell id="hKcBIEpO0FBxgOj7Asnk-4" value="Model Internal Mo" style="shape=dataStorage;whiteSpace=wrap;html=1;fixedSize=1;flipH=1;fontSize=15;fillColor=#fad7ac;strokeColor=#b46504;" vertex="1" parent="1">
          <mxGeometry x="937" y="300" width="190" height="79" as="geometry" />
        </mxCell>
        <mxCell id="hKcBIEpO0FBxgOj7Asnk-9" style="edgeStyle=orthogonalEdgeStyle;rounded=0;orthogonalLoop=1;jettySize=auto;html=1;entryX=0.911;entryY=0.494;entryDx=0;entryDy=0;entryPerimeter=0;fontSize=15;" edge="1" parent="1" source="hKcBIEpO0FBxgOj7Asnk-11" target="hKcBIEpO0FBxgOj7Asnk-15">
          <mxGeometry relative="1" as="geometry" />
        </mxCell>
        <mxCell id="hKcBIEpO0FBxgOj7Asnk-10" value="serialized by generated cpp" style="edgeLabel;html=1;align=center;verticalAlign=middle;resizable=0;points=[];fontSize=18;" vertex="1" connectable="0" parent="hKcBIEpO0FBxgOj7Asnk-9">
          <mxGeometry x="0.0598" y="-1" relative="1" as="geometry">
            <mxPoint x="-11" y="-2" as="offset" />
          </mxGeometry>
        </mxCell>
        <mxCell id="hKcBIEpO0FBxgOj7Asnk-11" value="CMI Mo" style="shape=dataStorage;whiteSpace=wrap;html=1;fixedSize=1;flipH=1;fontSize=15;fillColor=#fad7ac;strokeColor=#b46504;" vertex="1" parent="1">
          <mxGeometry x="500" y="420" width="180" height="79" as="geometry" />
        </mxCell>
        <mxCell id="hKcBIEpO0FBxgOj7Asnk-12" style="edgeStyle=orthogonalEdgeStyle;rounded=0;orthogonalLoop=1;jettySize=auto;html=1;fontSize=15;" edge="1" parent="1" source="hKcBIEpO0FBxgOj7Asnk-14">
          <mxGeometry relative="1" as="geometry">
            <mxPoint x="520" y="460" as="targetPoint" />
          </mxGeometry>
        </mxCell>
        <mxCell id="hKcBIEpO0FBxgOj7Asnk-13" value="model::copyFrom" style="edgeLabel;html=1;align=center;verticalAlign=middle;resizable=0;points=[];fontSize=18;" vertex="1" connectable="0" parent="hKcBIEpO0FBxgOj7Asnk-12">
          <mxGeometry x="-0.274" y="2" relative="1" as="geometry">
            <mxPoint x="34" y="2" as="offset" />
          </mxGeometry>
        </mxCell>
        <mxCell id="hKcBIEpO0FBxgOj7Asnk-14" value="Model Internal Mo" style="shape=dataStorage;whiteSpace=wrap;html=1;fixedSize=1;flipH=1;fontSize=15;fillColor=#fad7ac;strokeColor=#b46504;" vertex="1" parent="1">
          <mxGeometry x="60" y="420" width="180" height="79" as="geometry" />
        </mxCell>
        <mxCell id="hKcBIEpO0FBxgOj7Asnk-15" value="CMI protobuf" style="shape=dataStorage;whiteSpace=wrap;html=1;fixedSize=1;flipH=1;fontSize=15;fillColor=#fad7ac;strokeColor=#b46504;" vertex="1" parent="1">
          <mxGeometry x="937" y="420" width="190" height="79" as="geometry" />
        </mxCell>
        <mxCell id="hKcBIEpO0FBxgOj7Asnk-16" value="Lim Mo" style="shape=dataStorage;whiteSpace=wrap;html=1;fixedSize=1;flipH=1;fontSize=15;fillColor=#fad7ac;strokeColor=#b46504;" vertex="1" parent="1">
          <mxGeometry x="715" y="690" width="180" height="79" as="geometry" />
        </mxCell>
        <mxCell id="hKcBIEpO0FBxgOj7Asnk-19" value="Model Internal Mo" style="shape=dataStorage;whiteSpace=wrap;html=1;fixedSize=1;flipH=1;fontSize=15;fillColor=#fad7ac;strokeColor=#b46504;" vertex="1" parent="1">
          <mxGeometry x="275" y="690" width="180" height="79" as="geometry" />
        </mxCell>
        <mxCell id="hKcBIEpO0FBxgOj7Asnk-20" value="" style="endArrow=classic;startArrow=classic;html=1;rounded=0;fontSize=18;entryX=0.894;entryY=0.519;entryDx=0;entryDy=0;entryPerimeter=0;" edge="1" parent="1" target="hKcBIEpO0FBxgOj7Asnk-16">
          <mxGeometry width="50" height="50" relative="1" as="geometry">
            <mxPoint x="455" y="731" as="sourcePoint" />
            <mxPoint x="825" y="660" as="targetPoint" />
          </mxGeometry>
        </mxCell>
        <mxCell id="hKcBIEpO0FBxgOj7Asnk-21" value="model::copyFrom" style="edgeLabel;html=1;align=center;verticalAlign=middle;resizable=0;points=[];fontSize=18;" vertex="1" connectable="0" parent="hKcBIEpO0FBxgOj7Asnk-20">
          <mxGeometry x="-0.1544" y="2" relative="1" as="geometry">
            <mxPoint x="14" as="offset" />
          </mxGeometry>
        </mxCell>
        <mxCell id="hKcBIEpO0FBxgOj7Asnk-24" value="CmDataViewFacade" style="text;html=1;strokeColor=none;fillColor=none;align=center;verticalAlign=middle;whiteSpace=wrap;rounded=0;fontSize=18;fontStyle=1" vertex="1" parent="1">
          <mxGeometry x="282.5" y="270" width="175" height="30" as="geometry" />
        </mxCell>
        <mxCell id="hKcBIEpO0FBxgOj7Asnk-28" value="CmDataAccessor" style="text;html=1;strokeColor=none;fillColor=none;align=center;verticalAlign=middle;whiteSpace=wrap;rounded=0;fontSize=18;fontStyle=1" vertex="1" parent="1">
          <mxGeometry x="620" y="190" width="150" height="30" as="geometry" />
        </mxCell>
        <mxCell id="hKcBIEpO0FBxgOj7Asnk-31" value="LimDataAccessor" style="text;html=1;strokeColor=none;fillColor=none;align=center;verticalAlign=middle;whiteSpace=wrap;rounded=0;fontSize=18;fontStyle=1" vertex="1" parent="1">
          <mxGeometry x="500" y="670" width="150" height="30" as="geometry" />
        </mxCell>
      </root>
    </mxGraphModel>
  </diagram>
</mxfile>
